<?xml version="1.0" encoding="UTF-8"?> <svg xmlns="http://www.w3.org/2000/svg" xmlns:xlink="http://www.w3.org/1999/xlink" width="137px" height="29px" viewBox="0 0 137 29"><!-- Generator: Sketch 56.3 (81716) - https://sketch.com --><title>Kapten_Logotype_BluePassenger_RGB</title><desc>Created with Sketch.</desc><g id="Symbols" stroke="none" stroke-width="1" fill="none" fill-rule="evenodd"><g id="nav_desktop_sans_background" transform="translate(0.000000, -22.000000)" fill-rule="nonzero"><g id="Kapten_Logotype_BluePassenger_RGB" transform="translate(0.000000, 22.000000)"><path d="M136.711048,24 L120.288952,24 C120.144476,24 120,24.1363636 120,24.2727273 L120,27.7272727 C120,27.8636364 120.144476,28 120.288952,28 L136.711048,28 C136.855524,28 137,27.8636364 137,27.7272727 L137,24.2727273 C137,24.0909091 136.903683,24 136.711048,24 Z" id="Kapten_x5F_Logotype_x5F_Passenger_x5F_Underscore" fill="#FF4F71"></path><path d="M15.8544278,22.5838138 C15.9951476,22.7684522 15.9013344,22.9992503 15.6668015,22.9992503 L11.6328346,22.9992503 C11.5390214,22.9992503 11.4921148,22.9530907 11.4452082,22.9069311 L3.98706025,14.69052 L3.98706025,22.7684522 C3.98706025,22.9069311 3.84634048,23.0454099 3.7056207,23.0454099 L0.281439547,23.0454099 C0.140719774,23.0454099 0,22.9069311 0,22.7684522 L0,1.21191298 C0,1.07343414 0.0938131824,0.981114912 0.187626365,0.981114912 L3.61180752,0.0117630386 C3.79943389,-0.0343965744 3.94015366,0.104082265 3.94015366,0.242561104 L3.94015366,12.9364547 L10.9761423,5.04316086 C11.0230489,4.99700124 11.1168621,4.95084163 11.1637687,4.95084163 L15.3384553,4.95084163 C15.5729883,4.95084163 15.6668015,5.22779931 15.5260817,5.36627815 L7.88030732,13.8134873 L15.8544278,22.5838138 Z M74.0655075,4.95084163 L69.7970077,4.95084163 L69.7970077,0.242561104 C69.7970077,0.0579226516 69.6093813,-0.0343965744 69.4686615,0.0117630386 L66.0444804,1.02727452 C65.9506672,1.07343414 65.856854,1.16575336 65.856854,1.25807259 L65.856854,4.95084163 L62.7141124,4.95084163 C62.5733926,4.95084163 62.4326729,5.08932047 62.4326729,5.22779931 L62.4326729,8.45897222 C62.4326729,8.59745106 62.5733926,8.73592989 62.7141124,8.73592989 L65.8099474,8.73592989 L65.8099474,17.4139371 C65.8099474,22.0298984 68.155277,23.7378041 74.1124141,23.0915695 C74.2531338,23.0915695 74.346947,22.9530907 74.346947,22.8146119 L74.346947,19.814237 C74.346947,19.6757582 74.2062273,19.5372793 74.0655075,19.5372793 C71.251112,19.6757582 69.7970077,19.6295986 69.7970077,17.4139371 L69.7970077,8.68977028 L74.0655075,8.68977028 C74.2062273,8.68977028 74.346947,8.55129144 74.346947,8.4128126 L74.346947,5.18163969 C74.346947,5.04316086 74.2062273,4.95084163 74.0655075,4.95084163 Z M95.5487262,13.9981258 C95.5487262,14.4597219 95.5018197,14.921318 95.4549131,15.3367546 C95.4549131,15.521393 95.2672867,15.6137122 95.1265669,15.6137122 L80.8669632,15.6137122 C80.8200566,15.6137122 80.8200566,15.6137122 80.8200566,15.6598718 C81.4767489,18.4294486 83.7751719,19.8603966 86.6833805,19.8603966 C88.7472705,19.8603966 90.295188,19.0295236 91.2333199,17.8755333 C91.327133,17.7370544 91.561666,17.6908948 91.7023858,17.783214 L94.3291549,19.3064813 C94.5167812,19.3988005 94.5636878,19.6757582 94.4229681,19.814237 C92.7343308,22.0760581 90.0606551,23.4146868 86.5895673,23.4146868 C80.5386171,23.4146868 76.5984634,19.3526409 76.5984634,13.9058066 C76.5984634,8.55129144 80.5386171,4.39692627 86.3081278,4.39692627 C91.7961989,4.4892455 95.5487262,8.82824912 95.5487262,13.9981258 Z M91.561666,12.4286989 C90.9987869,9.33600486 88.7003639,8.0435357 86.3081278,8.0435357 C83.3530125,8.0435357 81.3360291,9.75144138 80.77315,12.4286989 C80.77315,12.4286989 80.77315,12.4748585 80.8200566,12.4748585 L91.561666,12.4286989 C91.5147594,12.4748585 91.561666,12.4286989 91.561666,12.4286989 Z M108.917105,4.4892455 C106.431055,4.4892455 104.414072,5.41243776 103.241407,7.25882228 L103.241407,5.22779931 C103.241407,5.08932047 103.100687,4.95084163 102.959968,4.95084163 L99.5357865,4.95084163 C99.3950667,4.95084163 99.2543469,5.08932047 99.2543469,5.22779931 L99.2543469,22.7684522 C99.2543469,22.9069311 99.3950667,23.0454099 99.5357865,23.0454099 L102.959968,23.0454099 C103.100687,23.0454099 103.241407,22.9069311 103.241407,22.7684522 L103.241407,13.3518912 C103.241407,9.65912215 105.305297,8.13585493 107.88516,8.13585493 C110.371209,8.13585493 112.01294,9.56680293 112.01294,12.3363797 L112.01294,22.7684522 C112.01294,22.9069311 112.15366,23.0454099 112.294379,23.0454099 L115.71856,23.0454099 C115.85928,23.0454099 116,22.9069311 116,22.7684522 L116,11.9209432 C115.953093,7.21266267 112.997978,4.4892455 108.917105,4.4892455 Z M36.1180752,5.22779931 L36.1180752,22.7684522 C36.1180752,22.9069311 35.9773554,23.0454099 35.8366357,23.0454099 L32.4124545,23.0454099 C32.2717347,23.0454099 32.131015,22.9069311 32.131015,22.7684522 L32.131015,20.414312 C30.630004,22.4914946 28.4723008,23.5070061 25.704812,23.5070061 C23.171856,23.5070061 21.0610594,22.5838138 19.2317024,20.7374293 C17.4492519,18.8910448 16.5580267,16.6292237 16.5580267,13.9981258 C16.5580267,11.3208682 17.4492519,9.1052068 19.2317024,7.25882228 C21.0141529,5.41243776 23.171856,4.4892455 25.704812,4.4892455 C28.5192074,4.4892455 30.630004,5.50475699 32.131015,7.53577996 L32.131015,5.22779931 C32.131015,5.08932047 32.2717347,4.95084163 32.4124545,4.95084163 L35.8366357,4.95084163 C36.024262,4.95084163 36.1180752,5.04316086 36.1180752,5.22779931 Z M32.1779216,13.9981258 C32.1779216,12.3363797 31.6150425,10.9515913 30.5361909,9.88992022 C29.4573393,8.78208951 28.0501415,8.22817415 26.4084108,8.22817415 C24.7666801,8.22817415 23.3594824,8.78208951 22.2806308,9.88992022 C21.2017792,10.9515913 20.6389001,12.3363797 20.6389001,13.9981258 C20.6389001,15.6598718 21.2017792,17.0446602 22.2806308,18.1524909 C23.3594824,19.214162 24.7666801,19.7680774 26.4084108,19.7680774 C28.0501415,19.7680774 29.4573393,19.214162 30.5361909,18.1524909 C31.6150425,16.9985006 32.1779216,15.6598718 32.1779216,13.9981258 Z M58.2110797,7.25882228 C59.9935301,9.1052068 60.8847554,11.3208682 60.8847554,13.9981258 C60.8847554,16.6753833 59.9935301,18.8910448 58.2110797,20.7374293 C56.4286292,22.5838138 54.270926,23.5070061 51.7379701,23.5070061 C48.9704812,23.5070061 46.812778,22.4914946 45.3117671,20.4604716 L45.3117671,28.7230423 C45.3117671,28.8615212 45.1710473,29 45.0303275,29 L41.6061464,29 C41.4654266,29 41.3247068,28.8615212 41.3247068,28.7230423 L41.3247068,5.22779931 C41.3247068,5.08932047 41.4654266,4.95084163 41.6061464,4.95084163 L45.0303275,4.95084163 C45.1710473,4.95084163 45.3117671,5.08932047 45.3117671,5.22779931 L45.3117671,7.58193957 C46.812778,5.50475699 48.9704812,4.4892455 51.7379701,4.4892455 C54.3178326,4.4892455 56.4286292,5.41243776 58.2110797,7.25882228 Z M56.9446017,13.9981258 C56.9446017,12.3363797 56.3817226,10.9515913 55.302871,9.88992022 C54.2240194,8.78208951 52.8168217,8.22817415 51.175091,8.22817415 C49.5333603,8.22817415 48.1261626,8.78208951 47.047311,9.88992022 C45.9684594,10.9515913 45.4055803,12.3363797 45.4055803,13.9981258 C45.4055803,15.6598718 45.9684594,17.0446602 47.047311,18.1524909 C48.1261626,19.214162 49.5333603,19.7680774 51.175091,19.7680774 C52.8168217,19.7680774 54.2240194,19.214162 55.302871,18.1524909 C56.3817226,16.9985006 56.9446017,15.6598718 56.9446017,13.9981258 Z" id="Kapten_x5F_Logotype_x5F_Blue" fill="#FFFFFF"></path></g></g></g></svg> 