<?xml version="1.0" standalone="no"?>
<!DOCTYPE svg PUBLIC "-//W3C//DTD SVG 20010904//EN"
 "http://www.w3.org/TR/2001/REC-SVG-20010904/DTD/svg10.dtd">
<svg version="1.0" xmlns="http://www.w3.org/2000/svg"
 width="1280.000000pt" height="1230.000000pt" viewBox="0 0 1280.000000 1230.000000"
 preserveAspectRatio="xMidYMid meet">
<metadata>
Created by potrace 1.15, written by Peter Selinger 2001-2017
</metadata>
<g transform="translate(0.000000,1230.000000) scale(0.100000,-0.100000)"
fill="#000000" stroke="none">
<path d="M7945 12285 c-44 -8 -114 -27 -155 -41 -108 -38 -366 -166 -425 -212
l-51 -39 -39 17 c-83 35 -374 129 -475 154 -218 52 -296 60 -585 61 -373 0
-681 -31 -1230 -125 -1207 -206 -1334 -230 -1619 -307 -256 -69 -532 -187
-701 -301 -247 -166 -475 -421 -598 -667 -87 -173 -121 -319 -172 -730 -53
-434 -96 -677 -161 -910 -27 -94 -157 -485 -181 -542 l-13 -33 -84 0 c-153 0
-259 -35 -374 -124 -209 -160 -348 -414 -457 -831 -109 -418 -119 -613 -103
-2015 11 -1066 11 -1066 -38 -1510 -57 -515 -152 -984 -313 -1548 -57 -199
-118 -455 -141 -592 -6 -36 -15 -139 -20 -229 -12 -220 -14 -216 125 -277 178
-78 661 -210 1570 -428 1074 -258 1264 -306 1725 -441 799 -234 1472 -405
1945 -494 474 -90 741 -114 1260 -115 505 0 799 23 1122 90 246 50 572 166
798 283 327 169 475 308 475 447 0 18 9 53 20 79 11 26 29 92 40 148 26 124
39 147 219 355 378 438 544 749 527 987 -7 94 -36 206 -76 290 -36 76 -74 198
-108 345 -26 110 -27 127 -27 390 1 215 4 294 18 364 9 49 18 91 20 93 2 2 7
-38 10 -89 15 -225 123 -667 222 -910 84 -205 146 -308 249 -417 66 -68 342
-309 496 -432 315 -252 677 -442 997 -525 217 -56 429 -3 588 148 87 82 115
128 221 363 87 196 137 292 237 460 41 70 56 104 50 114 -6 9 4 54 29 129 40
123 44 146 28 203 -18 65 -99 119 -178 119 -57 0 -181 -34 -267 -74 -87 -40
-235 -135 -374 -240 -303 -229 -443 -289 -671 -289 -102 0 -126 3 -210 31
-159 53 -359 166 -501 284 -102 85 -208 256 -262 423 -76 235 -152 564 -192
823 -14 95 -40 221 -56 280 -52 183 -69 270 -69 347 l0 74 58 11 c227 47 477
250 584 475 29 61 33 80 33 150 0 99 -20 154 -87 241 l-49 64 29 43 c16 23 86
111 156 196 212 259 398 554 575 908 44 90 129 240 187 335 294 473 421 706
507 925 101 257 186 634 233 1038 25 213 26 684 1 846 -35 230 -99 451 -182
624 -68 142 -205 289 -324 350 -49 24 -195 75 -216 75 -8 0 -20 7 -28 15 -8 7
-86 47 -173 87 -88 40 -310 147 -494 238 -430 213 -554 254 -803 267 l-118 6
-47 56 c-27 31 -78 94 -114 142 -76 98 -147 172 -198 204 -77 49 -124 58 -315
61 -176 4 -183 5 -315 44 -74 22 -213 67 -308 100 -94 32 -207 66 -250 75
-110 23 -309 28 -407 10z m370 -319 c33 -8 94 -27 135 -42 l74 -28 -195 -96
c-107 -52 -216 -110 -244 -127 l-50 -32 -50 28 c-27 16 -112 61 -187 100 -76
40 -138 75 -138 77 0 14 241 111 325 130 72 16 240 11 330 -10z m-1835 -57
c115 -14 215 -35 340 -71 l105 -30 105 -114 c58 -63 192 -199 299 -302 107
-103 229 -230 271 -283 141 -177 292 -436 478 -819 236 -486 337 -744 383
-985 21 -106 18 -752 -5 -1000 -38 -420 -76 -630 -218 -1185 -55 -217 -103
-408 -107 -424 -6 -26 -10 -22 -53 66 -89 179 -238 361 -379 460 -217 155
-367 215 -570 229 -70 5 -160 17 -200 28 -154 42 -384 75 -849 121 -630 63
-1093 120 -1430 176 -412 68 -1016 191 -1355 275 -371 93 -1233 362 -1409 440
-50 22 -51 24 -35 66 6 15 40 114 76 218 149 440 201 680 273 1265 49 399 82
535 167 692 63 115 153 226 280 348 172 164 349 266 630 364 246 85 497 139
1213 260 146 25 384 66 530 91 294 50 580 89 770 105 69 6 141 12 160 14 87 8
454 5 530 -5z m2900 -182 c24 -16 149 -166 150 -178 0 -3 -64 -20 -142 -38
-79 -19 -205 -51 -281 -72 -75 -22 -141 -39 -147 -39 -8 0 -43 103 -83 247
l-15 52 72 15 c144 31 173 35 296 33 101 -2 130 -5 150 -20z m-795 -189 c4
-18 23 -82 42 -141 19 -60 33 -110 31 -113 -6 -5 -308 167 -308 176 0 6 208
109 222 110 3 0 9 -15 13 -32z m-696 -170 c80 -45 189 -108 241 -141 113 -71
442 -259 520 -297 42 -21 107 -79 285 -256 296 -294 425 -453 496 -612 95
-210 331 -1017 398 -1362 57 -294 76 -567 67 -965 -9 -410 -32 -601 -126
-1070 -62 -303 -127 -597 -241 -1085 -110 -469 -119 -511 -224 -1025 -46 -225
-138 -664 -204 -975 -132 -624 -187 -897 -226 -1130 -14 -85 -50 -292 -80
-460 -49 -279 -68 -402 -94 -610 -6 -41 -15 -151 -21 -245 -6 -93 -13 -207
-16 -252 l-6 -81 -70 -47 c-227 -151 -589 -293 -918 -361 -71 -15 -132 -25
-135 -23 -12 13 34 489 85 874 57 422 80 657 120 1225 47 650 121 1365 195
1870 83 565 135 889 148 920 30 69 129 436 192 703 79 338 135 568 235 953
189 729 234 988 271 1544 16 250 7 832 -15 925 -64 275 -108 398 -282 783
-268 591 -535 1045 -735 1251 -53 55 -43 51 140 -51z m2260 -113 c40 -8 107
-27 149 -41 84 -28 352 -153 352 -164 0 -4 -28 -8 -62 -9 -91 -2 -211 -19
-301 -42 -121 -31 -436 -158 -612 -247 -38 -20 -112 -54 -163 -77 l-94 -41
-216 214 c-120 117 -216 217 -215 220 5 23 605 174 798 202 81 12 275 4 364
-15z m545 -620 c95 -248 114 -446 70 -745 -66 -451 -255 -1225 -391 -1604 -36
-103 -120 -304 -147 -353 l-15 -28 -1 55 c-1 101 -19 404 -30 500 -25 219 -79
472 -173 813 l-55 198 18 37 c19 39 38 100 121 387 82 287 127 459 160 620 17
86 36 155 44 161 33 25 335 71 357 54 4 -3 23 -45 42 -95z m606 74 c105 -17
247 -57 294 -81 31 -17 104 -88 141 -138 69 -94 153 -347 192 -579 14 -85 18
-162 18 -386 -1 -306 -13 -449 -66 -744 -101 -561 -185 -755 -654 -1511 -60
-96 -142 -242 -183 -325 -156 -314 -338 -610 -492 -800 -93 -114 -206 -258
-237 -300 l-20 -28 -29 20 c-48 34 -242 141 -279 154 -21 8 -35 20 -35 30 0 9
13 75 29 147 52 229 140 672 165 833 l25 156 109 194 c273 486 359 680 480
1089 77 261 102 351 146 530 167 688 227 1103 197 1356 -14 115 -51 277 -80
355 -12 30 -21 56 -21 58 0 7 188 -11 300 -30z m-1360 -185 c0 -27 -134 -519
-145 -532 -2 -2 -11 18 -20 45 -35 94 -96 229 -128 283 l-34 55 156 77 c159
77 171 83 171 72z m-8235 -2291 c118 -51 338 -132 585 -214 146 -48 838 -244
1001 -283 349 -84 907 -197 1314 -265 289 -49 812 -112 1445 -176 506 -51 766
-92 849 -133 89 -44 100 -126 52 -412 -45 -277 -79 -589 -141 -1320 -36 -416
-59 -628 -100 -899 -35 -238 -42 -271 -180 -821 -152 -610 -193 -788 -260
-1160 -173 -950 -211 -1248 -268 -2095 l-7 -110 -50 2 c-176 9 -711 106 -1090
198 -217 53 -998 266 -1395 380 -393 113 -736 202 -1315 340 -974 233 -1747
435 -1801 469 -13 10 -24 26 -24 39 0 116 70 450 155 747 86 295 178 686 234
995 41 223 58 355 113 870 14 135 15 380 8 1705 -4 790 -3 902 12 1045 55 513
221 950 417 1099 74 56 111 67 216 63 86 -2 97 -6 230 -64z m5687 -1182 c128
-75 202 -134 263 -208 126 -151 195 -296 236 -495 32 -156 24 -294 -34 -568
-54 -256 -77 -394 -157 -930 -153 -1020 -199 -1429 -270 -2403 -33 -452 -60
-738 -90 -970 -62 -471 -81 -636 -100 -857 -11 -135 -23 -255 -25 -267 -4 -18
-15 -23 -72 -29 -38 -5 -241 -9 -453 -9 l-385 0 3 65 c7 149 53 732 67 858 39
342 89 663 195 1242 74 402 101 523 251 1125 143 572 160 649 193 870 44 300
65 490 106 960 58 674 94 1014 135 1266 27 166 36 246 33 311 -2 64 0 88 9 88
7 0 50 -22 95 -49z m2581 -1403 c226 -127 407 -261 407 -304 0 -28 -33 -75
-50 -69 -53 21 -231 139 -320 213 -58 48 -118 96 -133 107 -25 19 -26 22 -16
63 7 23 13 42 15 42 3 0 46 -23 97 -52z m-84 -485 c45 -34 104 -75 131 -90 28
-15 50 -31 50 -35 0 -15 -89 -30 -156 -26 -71 5 -184 46 -184 67 0 11 28 139
35 160 5 11 8 11 24 0 10 -8 55 -42 100 -76z m-557 -2093 c3 -34 1 -40 -15
-40 -15 0 -18 5 -13 23 3 12 6 32 6 45 0 38 18 15 22 -28z m35 -386 c74 -43
132 -143 154 -263 14 -78 -1 -152 -52 -258 -60 -125 -254 -397 -388 -543 l-42
-45 6 45 c4 25 31 187 61 360 30 173 70 407 90 520 19 113 37 210 39 217 5 16
79 -2 132 -33z m3045 -56 c-96 -161 -179 -324 -273 -538 -54 -123 -72 -154
-119 -201 -61 -63 -139 -99 -213 -99 -90 0 -299 71 -482 163 -134 67 -434 255
-370 233 121 -44 215 -60 345 -60 159 1 264 19 395 71 146 58 243 117 480 294
109 81 241 169 253 169 2 0 -5 -15 -16 -32z"/>
<path d="M1092 6321 l-50 -148 89 -29 c103 -34 97 -17 75 -203 -15 -126 -9
-171 27 -196 39 -27 85 -19 127 23 49 49 64 103 57 204 l-6 77 232 -80 c304
-104 421 -139 695 -205 527 -127 1013 -210 1942 -333 604 -80 1664 -201 1674
-190 7 7 38 290 33 295 -3 3 -187 25 -409 49 -1288 139 -2376 297 -2938 426
-466 107 -544 130 -1177 347 l-322 111 -49 -148z"/>
</g>
</svg>
